<mxfile host="app.diagrams.net" agent="Mozilla/5.0 (Windows NT 10.0; Win64; x64) AppleWebKit/537.36 (KHTML, like Gecko) Chrome/140.0.0.0 Safari/537.36" version="28.2.4">
  <diagram name="Página-1" id="JDle5UnGkg1_I2sn9wkq">
    <mxGraphModel dx="1452" dy="766" grid="1" gridSize="10" guides="1" tooltips="1" connect="1" arrows="1" fold="1" page="1" pageScale="1" pageWidth="827" pageHeight="1169" math="0" shadow="0">
      <root>
        <mxCell id="0" />
        <mxCell id="1" parent="0" />
        <mxCell id="M_gy-v7Igh7nktD3n92v-20" style="edgeStyle=orthogonalEdgeStyle;rounded=0;orthogonalLoop=1;jettySize=auto;html=1;entryX=0.5;entryY=0;entryDx=0;entryDy=0;endArrow=ERmany;endFill=0;startArrow=ERone;startFill=0;" edge="1" parent="1" source="M_gy-v7Igh7nktD3n92v-1" target="M_gy-v7Igh7nktD3n92v-19">
          <mxGeometry relative="1" as="geometry" />
        </mxCell>
        <mxCell id="M_gy-v7Igh7nktD3n92v-1" value="&lt;p style=&quot;margin:0px;margin-top:4px;text-align:center;text-decoration:underline;&quot;&gt;&lt;b&gt;Log_Errores&lt;/b&gt;&lt;/p&gt;&lt;hr size=&quot;1&quot; style=&quot;border-style:solid;&quot;&gt;&lt;p style=&quot;margin:0px;margin-left:8px;&quot;&gt;id_erroes INT&amp;nbsp;&lt;span style=&quot;background-color: transparent; color: light-dark(rgb(0, 0, 0), rgb(255, 255, 255));&quot;&gt;IDENTITY&lt;/span&gt;&lt;span style=&quot;background-color: transparent; color: light-dark(rgb(0, 0, 0), rgb(255, 255, 255));&quot;&gt;&amp;nbsp;(PK),&lt;/span&gt;&lt;/p&gt;&lt;p style=&quot;margin:0px;margin-left:8px;&quot;&gt;descripcion VARCHAR(200),&lt;/p&gt;&lt;p style=&quot;margin:0px;margin-left:8px;&quot;&gt;tipo_error VARCHAR(200),&lt;/p&gt;&lt;p style=&quot;margin:0px;margin-left:8px;&quot;&gt;ip_origen INT&lt;/p&gt;" style="verticalAlign=top;align=left;overflow=fill;html=1;whiteSpace=wrap;" vertex="1" parent="1">
          <mxGeometry x="210" y="110" width="190" height="100" as="geometry" />
        </mxCell>
        <mxCell id="M_gy-v7Igh7nktD3n92v-17" style="edgeStyle=orthogonalEdgeStyle;rounded=0;orthogonalLoop=1;jettySize=auto;html=1;entryX=0.5;entryY=0;entryDx=0;entryDy=0;endArrow=ERmany;endFill=0;startArrow=ERone;startFill=0;" edge="1" parent="1" source="M_gy-v7Igh7nktD3n92v-2" target="M_gy-v7Igh7nktD3n92v-5">
          <mxGeometry relative="1" as="geometry" />
        </mxCell>
        <mxCell id="M_gy-v7Igh7nktD3n92v-21" style="edgeStyle=orthogonalEdgeStyle;rounded=0;orthogonalLoop=1;jettySize=auto;html=1;entryX=0.5;entryY=1;entryDx=0;entryDy=0;endArrow=ERmany;endFill=0;startArrow=ERone;startFill=0;" edge="1" parent="1" source="M_gy-v7Igh7nktD3n92v-2" target="M_gy-v7Igh7nktD3n92v-19">
          <mxGeometry relative="1" as="geometry" />
        </mxCell>
        <mxCell id="M_gy-v7Igh7nktD3n92v-22" style="rounded=0;orthogonalLoop=1;jettySize=auto;html=1;entryX=0;entryY=0.5;entryDx=0;entryDy=0;endArrow=ERmany;endFill=0;startArrow=ERone;startFill=0;" edge="1" parent="1" source="M_gy-v7Igh7nktD3n92v-2" target="M_gy-v7Igh7nktD3n92v-15">
          <mxGeometry relative="1" as="geometry" />
        </mxCell>
        <mxCell id="M_gy-v7Igh7nktD3n92v-2" value="&lt;p style=&quot;margin:0px;margin-top:4px;text-align:center;text-decoration:underline;&quot;&gt;Usuario&lt;/p&gt;&lt;hr size=&quot;1&quot; style=&quot;border-style:solid;&quot;&gt;&lt;p style=&quot;margin:0px;margin-left:8px;&quot;&gt;id_usuario INT IDENTITY (PK),&lt;/p&gt;&lt;p style=&quot;margin:0px;margin-left:8px;&quot;&gt;nombre VARCHAR(200) NOT NULL,&lt;/p&gt;&lt;p style=&quot;margin:0px;margin-left:8px;&quot;&gt;contraseña VARCHAR(200)&amp;nbsp;&lt;span style=&quot;background-color: transparent; color: light-dark(rgb(0, 0, 0), rgb(255, 255, 255));&quot;&gt;NOT NULL&lt;/span&gt;&lt;span style=&quot;background-color: transparent; color: light-dark(rgb(0, 0, 0), rgb(255, 255, 255));&quot;&gt;,&lt;/span&gt;&lt;/p&gt;&lt;p style=&quot;margin:0px;margin-left:8px;&quot;&gt;estado&amp;nbsp;&lt;span style=&quot;background-color: transparent; color: light-dark(rgb(0, 0, 0), rgb(255, 255, 255));&quot;&gt;VARCHAR(100)&amp;nbsp;&lt;/span&gt;&lt;span style=&quot;background-color: transparent; color: light-dark(rgb(0, 0, 0), rgb(255, 255, 255));&quot;&gt;NOT NULL&lt;/span&gt;&lt;span style=&quot;background-color: transparent; color: light-dark(rgb(0, 0, 0), rgb(255, 255, 255));&quot;&gt;,&lt;/span&gt;&lt;/p&gt;&lt;p style=&quot;margin:0px;margin-left:8px;&quot;&gt;fecha_creacion DATE,&lt;/p&gt;&lt;p style=&quot;margin:0px;margin-left:8px;&quot;&gt;ultimo_acceso&amp;nbsp;&lt;span style=&quot;background-color: transparent; color: light-dark(rgb(0, 0, 0), rgb(255, 255, 255));&quot;&gt;DATE&lt;/span&gt;&lt;/p&gt;" style="verticalAlign=top;align=left;overflow=fill;html=1;whiteSpace=wrap;" vertex="1" parent="1">
          <mxGeometry x="190" y="410" width="230" height="130" as="geometry" />
        </mxCell>
        <mxCell id="M_gy-v7Igh7nktD3n92v-26" style="rounded=0;orthogonalLoop=1;jettySize=auto;html=1;entryX=0;entryY=0.5;entryDx=0;entryDy=0;endArrow=ERmany;endFill=0;startArrow=ERone;startFill=0;" edge="1" parent="1" source="M_gy-v7Igh7nktD3n92v-5" target="M_gy-v7Igh7nktD3n92v-14">
          <mxGeometry relative="1" as="geometry" />
        </mxCell>
        <mxCell id="M_gy-v7Igh7nktD3n92v-5" value="&lt;p style=&quot;margin:0px;margin-top:4px;text-align:center;text-decoration:underline;&quot;&gt;Roles&lt;/p&gt;&lt;hr size=&quot;1&quot; style=&quot;border-style:solid;&quot;&gt;&lt;p style=&quot;margin:0px;margin-left:8px;&quot;&gt;id_rol INT IDENTITY (PK),&lt;/p&gt;&lt;p style=&quot;margin:0px;margin-left:8px;&quot;&gt;nombre VARCHAR(200) NOT NULL,&lt;/p&gt;&lt;p style=&quot;margin:0px;margin-left:8px;&quot;&gt;descripcion VARCHAR(200)&amp;nbsp;&lt;span style=&quot;background-color: transparent; color: light-dark(rgb(0, 0, 0), rgb(255, 255, 255));&quot;&gt;NOT NULL&lt;/span&gt;&lt;/p&gt;" style="verticalAlign=top;align=left;overflow=fill;html=1;whiteSpace=wrap;" vertex="1" parent="1">
          <mxGeometry x="190" y="691" width="230" height="110" as="geometry" />
        </mxCell>
        <mxCell id="M_gy-v7Igh7nktD3n92v-23" style="edgeStyle=orthogonalEdgeStyle;rounded=0;orthogonalLoop=1;jettySize=auto;html=1;entryX=1;entryY=0.5;entryDx=0;entryDy=0;endArrow=ERmany;endFill=0;startArrow=ERone;startFill=0;" edge="1" parent="1" source="M_gy-v7Igh7nktD3n92v-6" target="M_gy-v7Igh7nktD3n92v-15">
          <mxGeometry relative="1" as="geometry" />
        </mxCell>
        <mxCell id="M_gy-v7Igh7nktD3n92v-24" style="rounded=0;orthogonalLoop=1;jettySize=auto;html=1;entryX=0;entryY=0.5;entryDx=0;entryDy=0;startArrow=ERone;startFill=0;endArrow=ERmany;endFill=0;" edge="1" parent="1" source="M_gy-v7Igh7nktD3n92v-6" target="M_gy-v7Igh7nktD3n92v-16">
          <mxGeometry relative="1" as="geometry" />
        </mxCell>
        <mxCell id="M_gy-v7Igh7nktD3n92v-6" value="&lt;p style=&quot;margin:0px;margin-top:4px;text-align:center;text-decoration:underline;&quot;&gt;Medidor&lt;/p&gt;&lt;hr size=&quot;1&quot; style=&quot;border-style:solid;&quot;&gt;&lt;p style=&quot;margin:0px;margin-left:8px;&quot;&gt;id_medidor INT IDENTITY (PK),&lt;/p&gt;&lt;p style=&quot;margin:0px;margin-left:8px;&quot;&gt;modelo VARCHAR(200) NOT NULL,&lt;/p&gt;&lt;p style=&quot;margin:0px;margin-left:8px;&quot;&gt;estados VARCHAR(200)&amp;nbsp;&lt;span style=&quot;background-color: transparent; color: light-dark(rgb(0, 0, 0), rgb(255, 255, 255));&quot;&gt;NOT NULL,&lt;/span&gt;&lt;/p&gt;&lt;p style=&quot;margin:0px;margin-left:8px;&quot;&gt;&lt;span style=&quot;background-color: transparent; color: light-dark(rgb(0, 0, 0), rgb(255, 255, 255));&quot;&gt;id_usuario INT (FK)&lt;/span&gt;&lt;/p&gt;" style="verticalAlign=top;align=left;overflow=fill;html=1;whiteSpace=wrap;" vertex="1" parent="1">
          <mxGeometry x="800" y="421" width="230" height="110" as="geometry" />
        </mxCell>
        <mxCell id="M_gy-v7Igh7nktD3n92v-27" style="rounded=0;orthogonalLoop=1;jettySize=auto;html=1;entryX=1;entryY=0.5;entryDx=0;entryDy=0;startArrow=ERone;startFill=0;endArrow=ERmany;endFill=0;" edge="1" parent="1" source="M_gy-v7Igh7nktD3n92v-7" target="M_gy-v7Igh7nktD3n92v-14">
          <mxGeometry relative="1" as="geometry" />
        </mxCell>
        <mxCell id="M_gy-v7Igh7nktD3n92v-7" value="&lt;p style=&quot;margin:0px;margin-top:4px;text-align:center;text-decoration:underline;&quot;&gt;Permisos&lt;/p&gt;&lt;hr size=&quot;1&quot; style=&quot;border-style:solid;&quot;&gt;&lt;p style=&quot;margin:0px;margin-left:8px;&quot;&gt;id_permisos INT IDENTITY (PK),&lt;/p&gt;&lt;p style=&quot;margin:0px;margin-left:8px;&quot;&gt;nombre VARCHAR(200) NOT NULL,&lt;/p&gt;&lt;p style=&quot;margin:0px;margin-left:8px;&quot;&gt;descripcion VARCHAR(200)&amp;nbsp;&lt;span style=&quot;background-color: transparent; color: light-dark(rgb(0, 0, 0), rgb(255, 255, 255));&quot;&gt;NOT NULL,&lt;/span&gt;&lt;/p&gt;" style="verticalAlign=top;align=left;overflow=fill;html=1;whiteSpace=wrap;" vertex="1" parent="1">
          <mxGeometry x="870" y="690" width="230" height="90" as="geometry" />
        </mxCell>
        <mxCell id="M_gy-v7Igh7nktD3n92v-11" style="edgeStyle=orthogonalEdgeStyle;rounded=0;orthogonalLoop=1;jettySize=auto;html=1;entryX=0.5;entryY=0;entryDx=0;entryDy=0;startArrow=ERone;startFill=0;endArrow=ERone;endFill=0;" edge="1" parent="1" source="M_gy-v7Igh7nktD3n92v-8" target="M_gy-v7Igh7nktD3n92v-10">
          <mxGeometry relative="1" as="geometry" />
        </mxCell>
        <mxCell id="M_gy-v7Igh7nktD3n92v-12" style="edgeStyle=orthogonalEdgeStyle;rounded=0;orthogonalLoop=1;jettySize=auto;html=1;entryX=0;entryY=0.5;entryDx=0;entryDy=0;endArrow=ERmany;endFill=0;startArrow=ERone;startFill=0;" edge="1" parent="1" source="M_gy-v7Igh7nktD3n92v-8" target="M_gy-v7Igh7nktD3n92v-9">
          <mxGeometry relative="1" as="geometry" />
        </mxCell>
        <mxCell id="M_gy-v7Igh7nktD3n92v-25" style="rounded=0;orthogonalLoop=1;jettySize=auto;html=1;entryX=1;entryY=0.5;entryDx=0;entryDy=0;endArrow=ERmany;endFill=0;startArrow=ERone;startFill=0;" edge="1" parent="1" source="M_gy-v7Igh7nktD3n92v-8" target="M_gy-v7Igh7nktD3n92v-16">
          <mxGeometry relative="1" as="geometry" />
        </mxCell>
        <mxCell id="M_gy-v7Igh7nktD3n92v-8" value="&lt;p style=&quot;margin:0px;margin-top:4px;text-align:center;text-decoration:underline;&quot;&gt;Consumo&lt;/p&gt;&lt;hr size=&quot;1&quot; style=&quot;border-style:solid;&quot;&gt;&lt;p style=&quot;margin:0px;margin-left:8px;&quot;&gt;id_consumo INT IDENTITY (PK),&lt;/p&gt;&lt;p style=&quot;margin:0px;margin-left:8px;&quot;&gt;fecha DATE,&lt;/p&gt;&lt;p style=&quot;margin:0px;margin-left:8px;&quot;&gt;litros INT NOT NULL&lt;span style=&quot;background-color: transparent; color: light-dark(rgb(0, 0, 0), rgb(255, 255, 255));&quot;&gt;,&lt;/span&gt;&lt;/p&gt;&lt;p style=&quot;margin:0px;margin-left:8px;&quot;&gt;&lt;span style=&quot;background-color: transparent; color: light-dark(rgb(0, 0, 0), rgb(255, 255, 255));&quot;&gt;id_medidor INT (FK)&lt;/span&gt;&lt;/p&gt;" style="verticalAlign=top;align=left;overflow=fill;html=1;whiteSpace=wrap;" vertex="1" parent="1">
          <mxGeometry x="1390" y="425" width="230" height="110" as="geometry" />
        </mxCell>
        <mxCell id="M_gy-v7Igh7nktD3n92v-9" value="&lt;p style=&quot;margin:0px;margin-top:4px;text-align:center;text-decoration:underline;&quot;&gt;Notificaciones&lt;/p&gt;&lt;hr size=&quot;1&quot; style=&quot;border-style:solid;&quot;&gt;&lt;p style=&quot;margin:0px;margin-left:8px;&quot;&gt;id_notificaciones INT IDENTITY (PK),&lt;/p&gt;&lt;p style=&quot;margin:0px;margin-left:8px;&quot;&gt;tipo VARCHAR(100) NOT NULL,&lt;/p&gt;&lt;p style=&quot;margin:0px;margin-left:8px;&quot;&gt;mensaje&amp;nbsp;&lt;span style=&quot;background-color: transparent; color: light-dark(rgb(0, 0, 0), rgb(255, 255, 255));&quot;&gt;VARCHAR(100) NOT NULL,&lt;/span&gt;&lt;/p&gt;&lt;p style=&quot;margin:0px;margin-left:8px;&quot;&gt;&lt;span style=&quot;background-color: transparent; color: light-dark(rgb(0, 0, 0), rgb(255, 255, 255));&quot;&gt;fecha DATE,&lt;/span&gt;&lt;/p&gt;&lt;p style=&quot;margin:0px;margin-left:8px;&quot;&gt;&lt;span style=&quot;background-color: transparent; color: light-dark(rgb(0, 0, 0), rgb(255, 255, 255));&quot;&gt;id_consumo INT (FK)&lt;/span&gt;&lt;/p&gt;" style="verticalAlign=top;align=left;overflow=fill;html=1;whiteSpace=wrap;" vertex="1" parent="1">
          <mxGeometry x="1800" y="425" width="230" height="110" as="geometry" />
        </mxCell>
        <mxCell id="M_gy-v7Igh7nktD3n92v-10" value="&lt;p style=&quot;margin:0px;margin-top:4px;text-align:center;text-decoration:underline;&quot;&gt;Historial&lt;/p&gt;&lt;hr size=&quot;1&quot; style=&quot;border-style:solid;&quot;&gt;&lt;p style=&quot;margin:0px;margin-left:8px;&quot;&gt;id_historial INT IDENTITY (PK),&lt;/p&gt;&lt;p style=&quot;margin:0px;margin-left:8px;&quot;&gt;fecha DATE,&lt;/p&gt;&lt;p style=&quot;margin:0px;margin-left:8px;&quot;&gt;litros INT NOT NULL&lt;span style=&quot;background-color: transparent; color: light-dark(rgb(0, 0, 0), rgb(255, 255, 255));&quot;&gt;,&lt;/span&gt;&lt;/p&gt;&lt;p style=&quot;margin:0px;margin-left:8px;&quot;&gt;&lt;span style=&quot;background-color: transparent; color: light-dark(rgb(0, 0, 0), rgb(255, 255, 255));&quot;&gt;id_consumo INT (FK)&lt;/span&gt;&lt;/p&gt;" style="verticalAlign=top;align=left;overflow=fill;html=1;whiteSpace=wrap;" vertex="1" parent="1">
          <mxGeometry x="1390" y="629" width="230" height="110" as="geometry" />
        </mxCell>
        <mxCell id="M_gy-v7Igh7nktD3n92v-14" value="&lt;p style=&quot;margin:0px;margin-top:4px;text-align:center;text-decoration:underline;&quot;&gt;Roles_Permisos&lt;/p&gt;&lt;hr size=&quot;1&quot; style=&quot;border-style:solid;&quot;&gt;&lt;p style=&quot;margin:0px;margin-left:8px;&quot;&gt;id_rol INT (FK),&lt;/p&gt;&lt;p style=&quot;margin:0px;margin-left:8px;&quot;&gt;&lt;span style=&quot;background-color: transparent; color: light-dark(rgb(0, 0, 0), rgb(255, 255, 255));&quot;&gt;id_permisos&amp;nbsp;&lt;/span&gt;INT (FK),&lt;/p&gt;&lt;p style=&quot;margin:0px;margin-left:8px;&quot;&gt;PRIMARY KEY(id_roles , id_permisos)&lt;/p&gt;" style="verticalAlign=top;align=left;overflow=fill;html=1;whiteSpace=wrap;" vertex="1" parent="1">
          <mxGeometry x="510" y="699" width="230" height="80" as="geometry" />
        </mxCell>
        <mxCell id="M_gy-v7Igh7nktD3n92v-15" value="&lt;p style=&quot;margin:0px;margin-top:4px;text-align:center;text-decoration:underline;&quot;&gt;Usuario_Medidor&lt;/p&gt;&lt;hr size=&quot;1&quot; style=&quot;border-style:solid;&quot;&gt;&lt;p style=&quot;margin:0px;margin-left:8px;&quot;&gt;id_usuario INT&amp;nbsp; (FK),&lt;/p&gt;&lt;p style=&quot;margin:0px;margin-left:8px;&quot;&gt;&lt;span style=&quot;background-color: transparent; color: light-dark(rgb(0, 0, 0), rgb(255, 255, 255));&quot;&gt;id_medidor&lt;/span&gt;&lt;span style=&quot;background-color: transparent; color: light-dark(rgb(0, 0, 0), rgb(255, 255, 255));&quot;&gt;&amp;nbsp;&lt;/span&gt;INT (FK),&lt;/p&gt;&lt;p style=&quot;margin:0px;margin-left:8px;&quot;&gt;PRIMARY KEY(id_usuario , id_medidor)&lt;/p&gt;" style="verticalAlign=top;align=left;overflow=fill;html=1;whiteSpace=wrap;" vertex="1" parent="1">
          <mxGeometry x="484" y="436" width="230" height="80" as="geometry" />
        </mxCell>
        <mxCell id="M_gy-v7Igh7nktD3n92v-16" value="&lt;p style=&quot;margin:0px;margin-top:4px;text-align:center;text-decoration:underline;&quot;&gt;Medidor_Consumo&lt;/p&gt;&lt;hr size=&quot;1&quot; style=&quot;border-style:solid;&quot;&gt;&lt;p style=&quot;margin:0px;margin-left:8px;&quot;&gt;&lt;span style=&quot;background-color: transparent; color: light-dark(rgb(0, 0, 0), rgb(255, 255, 255));&quot;&gt;id_medidor&lt;/span&gt;&lt;span style=&quot;background-color: transparent; color: light-dark(rgb(0, 0, 0), rgb(255, 255, 255));&quot;&gt;&amp;nbsp;&lt;/span&gt;&lt;span style=&quot;background-color: transparent; color: light-dark(rgb(0, 0, 0), rgb(255, 255, 255));&quot;&gt;INT (FK),&lt;/span&gt;&lt;/p&gt;&lt;p style=&quot;margin:0px;margin-left:8px;&quot;&gt;&lt;span style=&quot;color: light-dark(rgb(0, 0, 0), rgb(255, 255, 255)); background-color: transparent;&quot;&gt;id_consumo&lt;/span&gt;&amp;nbsp;INT&amp;nbsp; (FK),&lt;/p&gt;&lt;p style=&quot;margin:0px;margin-left:8px;&quot;&gt;PRIMARY KEY(id_medidor, id_consumo)&lt;/p&gt;" style="verticalAlign=top;align=left;overflow=fill;html=1;whiteSpace=wrap;" vertex="1" parent="1">
          <mxGeometry x="1102" y="435" width="230" height="80" as="geometry" />
        </mxCell>
        <mxCell id="M_gy-v7Igh7nktD3n92v-19" value="&lt;p style=&quot;margin:0px;margin-top:4px;text-align:center;text-decoration:underline;&quot;&gt;Usuario_Errores&lt;/p&gt;&lt;hr size=&quot;1&quot; style=&quot;border-style:solid;&quot;&gt;&lt;p style=&quot;margin:0px;margin-left:8px;&quot;&gt;id_usuario INT&amp;nbsp; (FK),&lt;/p&gt;&lt;p style=&quot;margin:0px;margin-left:8px;&quot;&gt;&lt;span style=&quot;background-color: transparent; color: light-dark(rgb(0, 0, 0), rgb(255, 255, 255));&quot;&gt;id_errores&amp;nbsp;&lt;/span&gt;INT (FK),&lt;/p&gt;&lt;p style=&quot;margin:0px;margin-left:8px;&quot;&gt;PRIMARY KEY(id_usuario ,&amp;nbsp;&lt;span style=&quot;background-color: transparent; color: light-dark(rgb(0, 0, 0), rgb(255, 255, 255));&quot;&gt;id_errores&lt;/span&gt;&lt;span style=&quot;background-color: transparent; color: light-dark(rgb(0, 0, 0), rgb(255, 255, 255));&quot;&gt;)&lt;/span&gt;&lt;/p&gt;" style="verticalAlign=top;align=left;overflow=fill;html=1;whiteSpace=wrap;" vertex="1" parent="1">
          <mxGeometry x="190" y="270" width="230" height="80" as="geometry" />
        </mxCell>
        <mxCell id="M_gy-v7Igh7nktD3n92v-28" value="&lt;p style=&quot;margin:0px;margin-top:4px;text-align:center;text-decoration:underline;&quot;&gt;Pliticas_Contraseñas&lt;/p&gt;&lt;hr size=&quot;1&quot; style=&quot;border-style:solid;&quot;&gt;&lt;p style=&quot;margin:0px;margin-left:8px;&quot;&gt;id_pliticas INT IDENTITY (PK),&lt;/p&gt;&lt;p style=&quot;margin:0px;margin-left:8px;&quot;&gt;min_Longitud INT,&lt;/p&gt;&lt;p style=&quot;margin:0px;margin-left:8px;&quot;&gt;max_Longitud INT,&lt;/p&gt;&lt;p style=&quot;margin:0px;margin-left:8px;&quot;&gt;requiere_simbolos VARCHAR(200)&amp;nbsp;&lt;span style=&quot;background-color: transparent; color: light-dark(rgb(0, 0, 0), rgb(255, 255, 255));&quot;&gt;NOT NULL&lt;/span&gt;&lt;span style=&quot;background-color: transparent; color: light-dark(rgb(0, 0, 0), rgb(255, 255, 255));&quot;&gt;,&lt;/span&gt;&lt;/p&gt;&lt;p style=&quot;margin:0px;margin-left:8px;&quot;&gt;&lt;span style=&quot;background-color: transparent; color: light-dark(rgb(0, 0, 0), rgb(255, 255, 255));&quot;&gt;requiere_numeros&amp;nbsp;&lt;/span&gt;&lt;span style=&quot;background-color: transparent; color: light-dark(rgb(0, 0, 0), rgb(255, 255, 255));&quot;&gt;VARCHAR(100)&amp;nbsp;&lt;/span&gt;&lt;span style=&quot;background-color: transparent; color: light-dark(rgb(0, 0, 0), rgb(255, 255, 255));&quot;&gt;NOT NULL&lt;/span&gt;&lt;span style=&quot;background-color: transparent; color: light-dark(rgb(0, 0, 0), rgb(255, 255, 255));&quot;&gt;,&lt;/span&gt;&lt;/p&gt;&lt;p style=&quot;margin:0px;margin-left:8px;&quot;&gt;&lt;span style=&quot;background-color: transparent; color: light-dark(rgb(0, 0, 0), rgb(255, 255, 255));&quot;&gt;requiere_mayusculas&lt;/span&gt;&amp;nbsp;&lt;span style=&quot;background-color: transparent; color: light-dark(rgb(0, 0, 0), rgb(255, 255, 255));&quot;&gt;VARCHAR(100)&amp;nbsp;&lt;/span&gt;&lt;span style=&quot;background-color: transparent; color: light-dark(rgb(0, 0, 0), rgb(255, 255, 255));&quot;&gt;NOT NULL&lt;/span&gt;&lt;/p&gt;" style="verticalAlign=top;align=left;overflow=fill;html=1;whiteSpace=wrap;" vertex="1" parent="1">
          <mxGeometry x="-230" y="270" width="280" height="130" as="geometry" />
        </mxCell>
        <mxCell id="M_gy-v7Igh7nktD3n92v-29" value="&lt;p style=&quot;margin:0px;margin-top:4px;text-align:center;text-decoration:underline;&quot;&gt;Configuracion_seguruidad&lt;/p&gt;&lt;hr size=&quot;1&quot; style=&quot;border-style:solid;&quot;&gt;&lt;p style=&quot;margin:0px;margin-left:8px;&quot;&gt;id_configuracion INT IDENTITY (PK),&lt;/p&gt;&lt;p style=&quot;margin:0px;margin-left:8px;&quot;&gt;nombre VARCHAR(200) NOT NULL,&lt;/p&gt;&lt;p style=&quot;margin:0px;margin-left:8px;&quot;&gt;valor VARCHAR(200)&amp;nbsp;&lt;span style=&quot;background-color: transparent; color: light-dark(rgb(0, 0, 0), rgb(255, 255, 255));&quot;&gt;NOT NULL&lt;/span&gt;&lt;span style=&quot;background-color: transparent; color: light-dark(rgb(0, 0, 0), rgb(255, 255, 255));&quot;&gt;,&lt;/span&gt;&lt;/p&gt;&lt;p style=&quot;margin:0px;margin-left:8px;&quot;&gt;descripcion&amp;nbsp;&lt;span style=&quot;background-color: transparent; color: light-dark(rgb(0, 0, 0), rgb(255, 255, 255));&quot;&gt;VARCHAR(200)&amp;nbsp;&lt;/span&gt;&lt;span style=&quot;background-color: transparent; color: light-dark(rgb(0, 0, 0), rgb(255, 255, 255));&quot;&gt;NOT NULL&lt;/span&gt;&lt;/p&gt;" style="verticalAlign=top;align=left;overflow=fill;html=1;whiteSpace=wrap;" vertex="1" parent="1">
          <mxGeometry x="-220" y="560" width="230" height="100" as="geometry" />
        </mxCell>
      </root>
    </mxGraphModel>
  </diagram>
</mxfile>
